<svg id="Layer_3_copy_3" data-name="Layer 3 copy 3" xmlns="http://www.w3.org/2000/svg" viewBox="0 0 360 360"><defs><style>.cls-1{fill:none;}.cls-2{fill:#fff;}.cls-3{fill:#e40738;}.cls-4,.cls-6{fill:#00903d;}.cls-4{stroke:#22201e;stroke-miterlimit:10;}.cls-5{fill:#fdfcfc;}.cls-7{fill:#22201e;}</style></defs><rect class="cls-1" width="360" height="360"/><path class="cls-2" d="M236.86,302.83a349.2885,349.2885,0,0,1-31.28,52.48,17.084,17.084,0,0,1-6.32,5.41c-14.13,7.13-27.72,15.09-39.02,26.42a42.4606,42.4606,0,0,0-8.2,10.77V291.47a.3272.3272,0,0,1,.2-.32.322.322,0,0,1,.37.05l2.92,2.34a.9582.9582,0,0,1,.35.64l.31,2.98a4.3081,4.3081,0,0,0,4.26,3.86l21.23.14a.14.14,0,0,1,.09.03l11.72,7.24a9.9384,9.9384,0,0,0,5.06,1.48l30.83.41a5.395,5.395,0,0,0,5.46-5.4v-1.57a.4888.4888,0,0,1,.48-.49Z" transform="translate(-82.115 -142.2)"/><path class="cls-3" d="M343.27,418.38H185.99c13.91-3.87,26.13-11.29,37.5-20.46a10.8675,10.8675,0,0,1,6.16-2.85,384.1423,384.1423,0,0,1,62.36.07,28.8126,28.8126,0,0,1,14.72,5.07,140.1971,140.1971,0,0,0,31.23,16.35C339.72,417.22,341.48,417.83,343.27,418.38Z" transform="translate(-82.115 -142.2)"/><path class="cls-4" d="M368.61,242.96l-.78,125.89a12.1675,12.1675,0,0,0,.7,4.14l5.11,14.48a18.5992,18.5992,0,0,1,1.05,6.14v10.87q0,.735-.06,1.44a23.3464,23.3464,0,0,0-.95-4.78,32.184,32.184,0,0,0-1.49-3.98,44.1323,44.1323,0,0,0-6.57-10.23c-11.19-13.35-25.62-21.91-41.67-28.03a13.3765,13.3765,0,0,1-6.11-4.68,266.152,266.152,0,0,1-25.2589-38.5959c-1.57-2.92-3.3975-7.3085-4.6975-10.3585-1.62-3.78-2.02-2.7051-2.77-6.7451-.07-.41-1.014-4.4078-1.084-4.8179-.3-1.92-.2093-7.5026-.2393-9.4326a40.3265,40.3265,0,0,1,.4-5.81,30.8021,30.8021,0,0,0,.21-3.31c.01-.91-.01-1.83-.03-2.76-.05-2.21-.1-4.42-.18-6.63a111.158,111.158,0,0,0-1.25-13.75c-1.5-9.04-3.45-17.99-9.29-25.42-.15-.2-.31-.39-.47-.57a17.3239,17.3239,0,0,0-2.59-2.5H371.33a3.3609,3.3609,0,0,1,3.36,3.36v6.16a3.3683,3.3683,0,0,1-.74,2.11l-4.61,5.73A3.3347,3.3347,0,0,0,368.61,242.96Z" transform="translate(-82.115 -142.2)"/><path class="cls-3" d="M308.89,352.26c-.47,1.11-1.69.95-2.62.7-12.62-3.38-25.56-4.68-38.53-5.59-2.78-.2-3.87-1.59-5.08-3.78-10.29-18.7-17.75-38.51-20.35-59.64-1.87-15.27-1.77-30.85,4.82-45.44,1.98-4.39,4.2-8.66,8.27-11.62,6.39-4.65,12.53-3.5,16.73,3.12a52.2747,52.2747,0,0,1,4.72,9.32,56.0391,56.0391,0,0,1,2.63,10.48q.405,3.105.75,6.21c.19,1.76.37,3.51.53,5.27a42.7457,42.7457,0,0,1,.39,6.18c-.12,2.2-.12,4.42-.17,6.62-.03,1.72-.05,3.45,0,5.17.02.89.06,1.77.13,2.65.03.47.06.94.11,1.4.02.22-.02,1.05.12,1.2a10.7838,10.7838,0,0,1-1.56-1.61,10.452,10.452,0,0,1-.8-2.03q-.84-2.325-1.67-4.67c-1.1-3.12-2.15-6.27-3.03-9.46-1.05-3.78-1.94-7.6-2.7-11.45q-.57-2.91-1.05-5.82c-.08-.49-.96-5.8-.87-5.81-2.38.48-1.76,2.44-1.61,3.82a199.1477,199.1477,0,0,0,15.78,58.91,268.3576,268.3576,0,0,0,23.42,41.97C308.03,349.52,309.63,350.54,308.89,352.26Z" transform="translate(-82.115 -142.2)"/><path class="cls-5" d="M358.63,417.88a39.17,39.17,0,0,1-13.23-2.15,120.8534,120.8534,0,0,1-32.77-16.4c-.48-.33-.96-.67-1.44-1,.75-.03,1.5-.07,2.25-.1a216.6573,216.6573,0,0,1,37.63,10.34c-17.13-10.99-36.34-15.79-56.15-18.54-19.78-2.75-39.66-2.8-60.72-.88a189.7366,189.7366,0,0,0,27.66-34.53c.67-1.06,1.34-1.82,2.71-1.78,36.38.99,70.72,7.7,97.71,34.9a34.6234,34.6234,0,0,1,8.14,13.01C373.94,410.8,369.26,417.56,358.63,417.88Z" transform="translate(-82.115 -142.2)"/><path class="cls-6" d="M254.57,355.84c-12.88,19.22-27.55,36.66-47.37,49.09-11.93,7.48-24.52,13.36-39.12,12.97a21.28,21.28,0,0,1-3.48-.24c-11.07-2.11-14.72-9.45-9.24-19.3,5.87-10.54,15.84-16.83,25.56-23.19,4.22-2.76,8.51-5.61,13.67-6.84a91.3118,91.3118,0,0,1-12.77,14.65,115.463,115.463,0,0,1-14.65,12.53c2.58,1.13,3.98-.47,5.48-1.47,22.37-14.85,38.69-35.24,52.72-57.72a340.8577,340.8577,0,0,0,16.7-31.07c3.85,12.99,7.37,25.11,13.73,35.93C259.18,346.91,257.94,350.82,254.57,355.84Z" transform="translate(-82.115 -142.2)"/><path class="cls-7" d="M374.63,405.95v-.03a23.3464,23.3464,0,0,0-.95-4.78,32.184,32.184,0,0,0-1.49-3.98,44.1323,44.1323,0,0,0-6.57-10.23c-11.19-13.35-25.62-21.91-41.67-28.03q-.48-.18-.93-.39a12.1486,12.1486,0,0,1-5.18-4.29c-9.43-13.51-17.53-27.79-25.32-42.28-1.57-2.92-3.07-5.89-4.37-8.94a55.7706,55.7706,0,0,1-3.69-11.74c-.07-.41-.14-.81-.21-1.22a41.4232,41.4232,0,0,1-.46-5.77,40.3265,40.3265,0,0,1,.4-5.81,30.8021,30.8021,0,0,0,.21-3.31c.01-.91-.01-1.83-.03-2.76-.05-2.21-.1-4.42-.18-6.63a111.158,111.158,0,0,0-1.25-13.75c-1.5-9.04-3.45-17.99-9.29-25.42-.15-.2-.31-.39-.47-.57a17.3239,17.3239,0,0,0-2.59-2.5,12.5178,12.5178,0,0,0-5.35-2.5c-3.8-.73-7.84.5-11.6,3.7a32.6624,32.6624,0,0,0-8.48,11.58c-6.52,14.29-7.76,29.33-6.69,44.83.38,5.51,2.95,10.98.76,16.66a9.0433,9.0433,0,0,1-.39.92c-.25.54-.51,1.07-.77,1.6-.39.84-.8,1.68-1.21,2.52a349.2885,349.2885,0,0,1-31.28,52.48,17.084,17.084,0,0,1-6.32,5.41c-14.13,7.13-27.72,15.09-39.02,26.42a42.4606,42.4606,0,0,0-8.2,10.77,28.2467,28.2467,0,0,0-1.32,3.08,19.55,19.55,0,0,0-1.05,4.2c-.83,6.33,2.32,11.2,9.12,13.79.75.28,1.5.54,2.25.74a29.9879,29.9879,0,0,0,6.79,1.16,34.115,34.115,0,0,0,4.29,0q1.92-.105,3.87-.39a77.4217,77.4217,0,0,0,10-2.11c13.91-3.87,26.13-11.29,37.5-20.46a10.8675,10.8675,0,0,1,6.16-2.85,384.1423,384.1423,0,0,1,62.36.07,28.8126,28.8126,0,0,1,14.72,5.07,140.1971,140.1971,0,0,0,31.23,16.35c1.76.66,3.52,1.27,5.31,1.82a51.8293,51.8293,0,0,0,13.6,2.5c.81.04,1.62.04,2.44.02C369.63,420.64,375.36,414.83,374.63,405.95ZM247.13,238.51c1.98-4.39,4.2-8.66,8.27-11.62,6.39-4.65,12.53-3.5,16.73,3.12a52.2747,52.2747,0,0,1,4.72,9.32,56.0391,56.0391,0,0,1,2.63,10.48q.405,3.105.75,6.21c.19,1.76.37,3.51.53,5.27a42.7457,42.7457,0,0,1,.39,6.18c-.12,2.2-.12,4.42-.17,6.62-.03,1.72-.05,3.45,0,5.17.02.89.06,1.77.13,2.65.03.47.06.94.11,1.4.02.22-.02,1.05.12,1.2a10.7838,10.7838,0,0,1-1.56-1.61,10.452,10.452,0,0,1-.8-2.03q-.84-2.325-1.67-4.67c-1.1-3.12-2.15-6.27-3.03-9.46-1.05-3.78-1.94-7.6-2.7-11.45q-.57-2.91-1.05-5.82c-.08-.49-.96-5.8-.87-5.81-2.38.48-1.76,2.44-1.61,3.82a199.1477,199.1477,0,0,0,15.78,58.91,268.3576,268.3576,0,0,0,23.42,41.97c.78,1.16,2.38,2.18,1.64,3.9-.47,1.11-1.69.95-2.62.7-12.62-3.38-25.56-4.68-38.53-5.59-2.78-.2-3.87-1.59-5.08-3.78-10.29-18.7-17.75-38.51-20.35-59.64C240.44,268.68,240.54,253.1,247.13,238.51ZM207.2,404.93c-11.93,7.48-24.52,13.36-39.12,12.97a21.28,21.28,0,0,1-3.48-.24c-.28-.05-.55-.11-.82-.17-.34-.08-.68-.16-1.01-.25-.1-.02-.21-.05-.31-.08-.34-.09-.66-.19-.98-.3-.24-.08-.48-.16-.71-.25-.23-.08-.46-.17-.68-.26-.44-.18-.86-.38-1.27-.58a.01.01,0,0,0-.01-.01c-.21-.11-.41-.22-.61-.33-.23-.13-.46-.27-.68-.42-.13-.08-.26-.16-.38-.25-.2-.15-.4-.29-.59-.45-.17-.13-.33-.27-.49-.41-.15-.14-.3-.28-.45-.43-.14-.14-.28-.29-.42-.44-.13-.15-.26-.3-.38-.46s-.24-.32-.35-.48-.21-.32-.31-.49a8.9724,8.9724,0,0,1-1.07-2.71c-.04-.19-.08-.39-.11-.59a.0367.0367,0,0,0-.01-.03.1268.1268,0,0,0-.01-.06c-.03-.26-.06-.52-.08-.79-.01-.11-.02-.22-.02-.34-.01-.12-.01-.24-.01-.35a11.661,11.661,0,0,1,.1-1.53c0-.02.01-.05.01-.07q.03-.285.09-.6c.01-.06.02-.11.03-.17.03-.19.07-.39.12-.59l.03-.12a13.6114,13.6114,0,0,1,.37-1.31c.03-.09.06-.17.09-.26a3.3856,3.3856,0,0,1,.15-.41,4.3609,4.3609,0,0,1,.2-.53c.06-.18.14-.36.22-.54.08-.19.16-.37.25-.55.17-.37.35-.75.55-1.12.1-.19.2-.38.31-.57,5.87-10.54,15.84-16.83,25.56-23.19,4.22-2.76,8.51-5.61,13.67-6.84a91.3118,91.3118,0,0,1-12.77,14.65,115.463,115.463,0,0,1-14.65,12.53c2.58,1.13,3.98-.47,5.48-1.47,22.37-14.85,38.69-35.24,52.72-57.72a340.8577,340.8577,0,0,0,16.7-31.07c3.85,12.99,7.37,25.11,13.73,35.93,3.38,5.73,2.14,9.64-1.23,14.66C241.69,375.06,227.02,392.5,207.2,404.93Zm164.17,4.22a3.89,3.89,0,0,1-.09.47c-.03.14-.07.28-.1.42a5.4256,5.4256,0,0,1-.17.53c-.05.15-.1.31-.16.46-.08.2-.16.39-.25.59-.09.19-.19.38-.29.57-.09.17-.2.35-.31.52-.04.07-.09.14-.13.21-.07.09-.14.19-.2.28-.02.02-.03.04-.04.05-.13.17-.26.33-.4.49s-.28.32-.43.47-.31.3-.47.44c-.18.16-.36.31-.55.46a8.76,8.76,0,0,1-.92.63q-.36.225-.75.42c-.19.1-.38.19-.57.28-.23.11-.47.2-.71.3-.01,0-.01.01-.02.01-.26.1-.52.19-.8.27-.26.09-.54.17-.82.24a4.209,4.209,0,0,1-.48.12,20.662,20.662,0,0,1-3.21.46c-.14.01-.28.02-.43.02-.15.01-.29.02-.44.02a39.17,39.17,0,0,1-13.23-2.15,120.8534,120.8534,0,0,1-32.77-16.4c-.48-.33-.96-.67-1.44-1,.75-.03,1.5-.07,2.25-.1a216.6573,216.6573,0,0,1,37.63,10.34c-17.13-10.99-36.34-15.79-56.15-18.54-19.78-2.75-39.66-2.8-60.72-.88a189.7366,189.7366,0,0,0,27.66-34.53c.67-1.06,1.34-1.82,2.71-1.78,36.38.99,70.72,7.7,97.71,34.9a34.6234,34.6234,0,0,1,8.14,13.01,21.4366,21.4366,0,0,1,.87,3.21,14.3248,14.3248,0,0,1,.1,5.12.0756.0756,0,0,1-.01.04C371.39,409.13,371.38,409.14,371.37,409.15Z" transform="translate(-82.115 -142.2)"/><path class="cls-7" d="M371.11,242.97l-.78,125.89a9.6724,9.6724,0,0,0,.55,3.29l5.11,14.49a20.6824,20.6824,0,0,1,1.2,6.97v10.87a18.9233,18.9233,0,0,1-18.9,18.9H167.38a20.3637,20.3637,0,0,1-20.34-20.34V291.47a5.3529,5.3529,0,0,1,8.7-4.17l2.92,2.34a5.9677,5.9677,0,0,1,2.19,4.02l.25,2.36,20.61.14a5.2267,5.2267,0,0,1,2.69.78l11.72,7.24a4.9148,4.9148,0,0,0,2.5.73l30.82.41a.3114.3114,0,0,0,.28-.12.3519.3519,0,0,0,.12-.28v-1.57a5.5134,5.5134,0,0,1,5.4-5.49l3.99-.07,1.99-.04.09,5-4.45.08-1.54.03a.4888.4888,0,0,0-.48.49v1.57a5.395,5.395,0,0,1-5.46,5.4l-30.83-.41a9.9384,9.9384,0,0,1-5.06-1.48l-11.72-7.24a.14.14,0,0,0-.09-.03l-21.23-.14a4.3081,4.3081,0,0,1-4.26-3.86l-.31-2.98a.9582.9582,0,0,0-.35-.64l-2.92-2.34a.322.322,0,0,0-.37-.05.3272.3272,0,0,0-.2.32V403.04a15.3358,15.3358,0,0,0,.92,5.23.0367.0367,0,0,1,.01.03,15.471,15.471,0,0,0,5.84,7.46.01.01,0,0,1,.01.01,15.2591,15.2591,0,0,0,8.56,2.61H358.29a13.7878,13.7878,0,0,0,6.52-1.63c.01,0,.01-.01.02-.01a13.9247,13.9247,0,0,0,6.54-7.59c.01-.01.02-.02.01-.03a13.4727,13.4727,0,0,0,.81-4.64V393.61a16.0194,16.0194,0,0,0-.91-5.31l-5.11-14.48a14.6531,14.6531,0,0,1-.84-4.99l.78-125.88a5.82,5.82,0,0,1,1.28-3.63l4.61-5.74a.8659.8659,0,0,0,.19-.54v-6.16a.8664.8664,0,0,0-.86-.86H270.59l-8.62-5H371.33a5.8682,5.8682,0,0,1,5.86,5.86v6.16a5.8813,5.8813,0,0,1-1.29,3.67l-4.61,5.74A.8217.8217,0,0,0,371.11,242.97Z" transform="translate(-82.115 -142.2)"/></svg>